<svg width="70" height="70" viewBox="0 0 70 70" fill="none" xmlns="http://www.w3.org/2000/svg">
<g id="Frame">
<g id="map-location--map-location-pin-navigation-gps-travel">
<g id="Group 5507">
<path id="Vector" d="M63.2564 28.9177C63.2856 23.466 62.8116 18.0231 61.8404 12.6585C61.4086 10.2813 61.065 7.69061 59.3657 5.97739C58.8829 5.48989 58.3211 5.16025 57.7082 5.21596C55.4471 5.42489 53.0236 6.05168 51.3011 6.52525C49.2954 7.08239 46.9971 8.21061 44.7546 9.28311C43.7848 9.74473 42.6829 9.84834 41.6439 9.57561L25.3104 5.35061C22.4689 4.68204 18.1046 5.78704 15.4211 6.52525C13.7404 6.98954 11.86 7.85311 9.97964 8.75382C9.30178 9.07882 8.72607 9.90989 8.28964 10.7549C7.53285 12.2174 7.22178 13.8517 6.93393 15.472L6.70178 16.7627C4.81156 27.3624 4.81156 38.2128 6.70178 48.8124C7.1475 51.287 7.43535 54.0635 9.31571 55.7303C9.77071 56.1342 10.2907 56.3756 10.8479 56.2688C12.5564 55.9438 14.3068 55.2427 16.1732 54.602C18.9171 53.6642 21.6611 52.6056 24.2054 51.9092C24.9295 51.7168 25.6912 51.7168 26.4154 51.9092L31.8104 53.3067" stroke="white" stroke-width="5" stroke-linecap="round" stroke-linejoin="round"/>
<path id="Intersect" d="M26.0114 51.8813C25.682 51.798 25.3437 51.7543 25.0039 51.7513V5.93558C25.0039 5.74058 25.0132 5.54558 25.0364 5.35522L42.0943 9.62665C42.5771 9.74272 43.0693 9.77987 43.5568 9.73344V27.7477" stroke="white" stroke-width="5" stroke-linecap="round" stroke-linejoin="round"/>
<g id="Group 5402">
<path id="Ellipse 45" d="M64.7143 47.6795C64.7143 56.8862 54.0589 64.858 52.9121 64.858C51.7607 64.858 41.1053 56.8862 41.1053 47.6795C41.1053 44.5487 42.349 41.5462 44.5628 39.3324C46.7766 37.1187 49.7791 35.875 52.9098 35.875C56.0405 35.875 59.0431 37.1187 61.2568 39.3324C63.4706 41.5462 64.7143 44.5487 64.7143 47.6795Z" stroke="white" stroke-width="5" stroke-linecap="round" stroke-linejoin="round"/>
<path id="Vector_2" d="M52.9075 47.9162V47.2104" stroke="white" stroke-width="5" stroke-linecap="round" stroke-linejoin="round"/>
</g>
</g>
</g>
</g>
</svg>
