<svg width="70" height="70" viewBox="0 0 70 70" fill="none" xmlns="http://www.w3.org/2000/svg">
<g id="Frame">
<g id="customer-support-5--customer-headset-help-phone-support">
<path id="Ellipse 18" d="M35 5.98218C15.9179 5.98218 5.00717 20.1104 6.16788 34.0575L7.23574 46.0129" stroke="white" stroke-width="5" stroke-linecap="round" stroke-linejoin="round"/>
<path id="Ellipse 19" d="M35 5.98218C54.0821 5.98218 64.9929 20.1104 63.8321 34.0575L62.7643 46.0129" stroke="white" stroke-width="5" stroke-linecap="round" stroke-linejoin="round"/>
<path id="Rectangle 15" d="M43.8725 43.0833C43.9788 41.8685 44.3234 40.6864 44.8866 39.6048C45.4498 38.5231 46.2205 37.5629 47.1548 36.7791C48.089 35.9953 49.1686 35.4032 50.3317 35.0366C51.4948 34.67 52.7187 34.5362 53.9336 34.6426L54.4443 34.6891C56.897 34.9038 59.164 36.0838 60.7468 37.9697C62.3296 39.8555 63.0988 42.2927 62.885 44.7455L62.0122 54.7694C61.9058 55.9843 61.5613 57.1663 60.9981 58.248C60.4349 59.3297 59.6642 60.2899 58.7299 61.0737C57.7956 61.8575 56.7161 62.4496 55.553 62.8162C54.3899 63.1827 53.166 63.3166 51.9511 63.2101L51.4404 63.1637C50.2251 63.058 49.0426 62.7138 47.9603 62.1509C46.8781 61.588 45.9174 60.8173 45.1331 59.883C44.3488 58.9486 43.7563 57.8689 43.3895 56.7055C43.0226 55.5421 42.8886 54.3179 42.995 53.1026L43.8772 43.0833H43.8725Z" stroke="white" stroke-width="5" stroke-linecap="round" stroke-linejoin="round"/>
<path id="Rectangle 16" d="M7.11505 44.7501C7.00858 43.5352 7.14245 42.3113 7.50902 41.1481C7.8756 39.985 8.4677 38.9055 9.2515 37.9712C10.0353 37.037 10.9955 36.2662 12.0772 35.7031C13.1589 35.1399 14.3409 34.7953 15.5558 34.689L16.0665 34.6426C17.2817 34.5354 18.5061 34.6688 19.6698 35.0351C20.8334 35.4014 21.9135 35.9934 22.8483 36.7772C23.7831 37.5611 24.5542 38.5215 25.1177 39.6035C25.6812 40.6855 26.0259 41.868 26.1322 43.0833L27.0097 53.1026C27.1162 54.3174 26.9823 55.5413 26.6157 56.7045C26.2491 57.8676 25.657 58.9471 24.8732 59.8814C24.0894 60.8156 23.1293 61.5864 22.0476 62.1495C20.9659 62.7127 19.7838 63.0573 18.569 63.1636L18.0583 63.2101C16.843 63.3172 15.6186 63.1838 14.455 62.8175C13.2913 62.4512 12.2112 61.8592 11.2765 61.0754C10.3417 60.2915 9.57052 59.3311 9.00705 58.2491C8.44359 57.1671 8.09885 55.9846 7.99255 54.7693L7.11505 44.7501Z" stroke="white" stroke-width="5" stroke-linecap="round" stroke-linejoin="round"/>
</g>
</g>
</svg>
