<svg width="70" height="70" viewBox="0 0 70 70" fill="none" xmlns="http://www.w3.org/2000/svg">
<g id="Frame">
<g id="tag--codes-tags-tag-product-label">
<path id="Intersect" d="M34.0482 61.0974C30.7239 64.106 25.6725 64.1989 22.1346 61.4503C19.5716 59.5107 17.1325 57.4127 14.8314 55.1685C12.5872 52.8659 10.4891 50.4252 8.54964 47.8606C5.80107 44.3228 5.89393 39.2714 8.9025 35.9471C15.3082 28.8751 22.1315 22.1929 29.3357 15.9364C30.6805 14.751 32.3657 14.0213 34.1504 13.8517C39.42 13.3781 50.7671 12.7839 53.9939 16.006C57.2207 19.2328 56.6218 30.5753 56.1482 35.8496C55.9773 37.6347 55.246 39.32 54.0589 40.6642C47.8023 47.8684 41.1201 54.6917 34.0482 61.0974Z" stroke="white" stroke-width="5" stroke-linecap="round" stroke-linejoin="round"/>
<path id="Vector 7" d="M63.4375 6.5625L44.9728 25.0271" stroke="white" stroke-width="5" stroke-linecap="round" stroke-linejoin="round"/>
</g>
</g>
</svg>
