<svg width="64" height="62" viewBox="0 0 64 62" fill="none" xmlns="http://www.w3.org/2000/svg">
<g id="artist-song--artist-song-entertainment">
<path id="Vector" d="M24.366 27.1429C32.0917 27.1429 36.4374 22.7971 36.4374 15.0714C36.4374 7.34571 32.0917 3 24.366 3C16.6403 3 12.2946 7.34571 12.2946 15.0714C12.2946 22.7971 16.6403 27.1429 24.366 27.1429Z" stroke="white" stroke-width="5" stroke-linecap="round" stroke-linejoin="round"/>
<path id="Vector_2" d="M42.3524 58.6261C46.1363 58.6261 48.2674 56.4951 48.2674 52.7111C48.2674 48.9272 46.1317 46.7961 42.3524 46.7961C38.5684 46.7961 36.4374 48.9272 36.4374 52.7111C36.4374 56.4951 38.5684 58.6261 42.3524 58.6261Z" stroke="white" stroke-width="5" stroke-linecap="round" stroke-linejoin="round"/>
<path id="Subtract" d="M27.7367 53.9972H11.0363C3.94204 53.9972 -0.0461717 46.4107 5.85954 42.4782C11.3381 38.8262 17.7772 36.8824 24.3613 36.8929C28.2474 36.8929 31.9756 37.5568 35.4485 38.7779" stroke="white" stroke-width="5" stroke-linecap="round" stroke-linejoin="round"/>
<path id="Vector_3" d="M48.2674 52.7111V32.2732C54.9578 32.2732 60.9517 37.9932 61.0213 44.6836V44.925" stroke="white" stroke-width="5" stroke-linecap="round" stroke-linejoin="round"/>
</g>
</svg>
