<svg width="50" height="50" viewBox="0 0 50 50" fill="none" xmlns="http://www.w3.org/2000/svg">
<g id="Frame">
<g id="calendar-mark--calendar-date-day-month-mark">
<path id="Vector" d="M15.0505 21.8491H16.7088" stroke="#00606D" stroke-width="4.64" stroke-linecap="round" stroke-linejoin="round"/>
<path id="Vector_2" d="M15.0505 31.7988H16.7088" stroke="#00606D" stroke-width="4.64" stroke-linecap="round" stroke-linejoin="round"/>
<path id="Vector_3" d="M24.1708 21.8491H25.8291" stroke="#00606D" stroke-width="4.64" stroke-linecap="round" stroke-linejoin="round"/>
<path id="Vector_4" d="M33.2912 21.8491H34.9494" stroke="#00606D" stroke-width="4.64" stroke-linecap="round" stroke-linejoin="round"/>
<path id="Vector_5" d="M24.1708 31.7988H25.8291" stroke="#00606D" stroke-width="4.64" stroke-linecap="round" stroke-linejoin="round"/>
<path id="Intersect" d="M5.75774 36.6908C6.29169 41.4665 10.172 45.254 14.9709 45.4861C18.2874 45.6453 21.6735 45.7282 25.3515 45.7282C29.0295 45.7282 32.4156 45.6453 35.7321 45.4861C40.5311 45.254 44.4114 41.4632 44.9453 36.6908C45.3068 33.4738 45.602 30.1805 45.602 26.8243C45.602 23.4647 45.3035 20.1714 44.9453 16.9544C44.4114 12.1787 40.5311 8.39125 35.7321 8.1591C32.4156 7.9999 29.0295 7.91699 25.3515 7.91699C21.6735 7.91699 18.2874 7.9999 14.9709 8.1591C10.172 8.39125 6.29169 12.182 5.75774 16.9544C5.39624 20.1714 5.10107 23.4647 5.10107 26.8243C5.10107 30.1805 5.39956 33.4771 5.75774 36.6908Z" stroke="#00606D" stroke-width="4.64" stroke-linecap="round" stroke-linejoin="round"/>
<path id="Line 3" d="M15.8896 4.27197V12.5632" stroke="#00606D" stroke-width="4.64" stroke-linecap="round" stroke-linejoin="round"/>
<path id="Line 4" d="M34.1203 4.27197V12.5632" stroke="#00606D" stroke-width="4.64" stroke-linecap="round" stroke-linejoin="round"/>
</g>
</g>
</svg>
