<svg width="50" height="50" viewBox="0 0 50 50" fill="none" xmlns="http://www.w3.org/2000/svg">
<g id="Frame">
<g id="ios-ipados">
<path id="Vector" d="M27.5271 44.9555C31.6064 45.0683 35.6194 44.9555 39.8147 44.6305C42.9919 44.3784 45.4527 41.7883 45.728 38.6111C46.1061 34.2167 46.4941 29.6665 46.4941 25.0002C46.4941 20.3339 46.1061 15.7804 45.728 11.3894C45.4527 8.2122 42.9919 5.61871 39.8147 5.36997C33.6891 4.87798 27.5339 4.87798 21.4082 5.36997C20.0485 5.4761 18.8214 6.01337 17.8364 6.84249C16.8692 7.66157 16.1559 8.73963 15.7802 9.95003" stroke="#00606D" stroke-width="4.64" stroke-linecap="round" stroke-linejoin="round"/>
<path id="Vector_2" d="M30.1804 35.4971H32.8899" stroke="#00606D" stroke-width="4.64" stroke-linecap="round" stroke-linejoin="round"/>
<path id="Intersect" d="M3.50586 30.7643C3.50586 27.9984 3.69822 25.2888 3.9171 22.6555C4.18242 19.4783 6.65652 16.8583 9.83703 16.6527C12.2078 16.4914 14.5868 16.4914 16.9575 16.6527C20.1413 16.8583 22.6121 19.4783 22.8774 22.6555C23.0963 25.2888 23.2887 27.9984 23.2887 30.7643C23.2887 33.5303 23.0963 36.2365 22.8774 38.8731C22.6121 42.0503 20.138 44.6703 16.9575 44.8759C14.4801 45.0385 12.3144 45.0385 9.83703 44.8759C6.65652 44.6703 4.18242 42.0503 3.9171 38.8731C3.66832 36.177 3.53222 33.4717 3.50918 30.7643H3.50586Z" stroke="#00606D" stroke-width="4.64" stroke-linecap="round" stroke-linejoin="round"/>
<path id="Vector 122" d="M11.7772 38.2329H15.0174" stroke="#00606D" stroke-width="4.64" stroke-linecap="round" stroke-linejoin="round"/>
</g>
</g>
</svg>
