<svg width="28" height="30" viewBox="0 0 28 30" fill="none" xmlns="http://www.w3.org/2000/svg">
<g id="Frame">
<g id="volume-level-high--speaker-high-volume-control-audio-music-entertainment">
<path id="Vector 456" d="M19.6409 12.5962C20.1695 13.1275 20.5399 13.9454 20.5399 15.0001C20.5399 16.0548 20.1695 16.8727 19.6409 17.404" stroke="white" stroke-width="2.14" stroke-linecap="round" stroke-linejoin="round"/>
<path id="Vector 457" d="M22.2696 7.7168C23.8915 9.3088 25.0369 11.7863 25.0369 15.0002C25.0369 18.2121 23.8915 20.6916 22.2678 22.2836" stroke="white" stroke-width="2.14" stroke-linecap="round" stroke-linejoin="round"/>
<path id="Vector 455" d="M2.8234 11.9295C2.65713 12.943 2.56871 13.9702 2.55908 15.0001C2.55908 16.0349 2.67236 17.1075 2.8234 18.0707C3.11469 19.9214 4.37693 21.4656 6.05993 21.7323C6.47348 21.796 6.95896 21.8517 7.52895 21.8935C8.19993 21.948 8.84993 22.1763 9.4265 22.56C10.0031 22.9437 10.4901 23.472 10.8482 24.1024C11.1359 24.5999 11.438 25.0874 11.7508 25.5491C13.1605 27.6207 15.356 26.4247 15.4513 23.8337C15.5304 21.6706 15.5951 18.7612 15.5951 15.0001C15.5951 11.239 15.5304 8.32963 15.4513 6.1665C15.356 3.57751 13.1605 2.37953 11.7508 4.45311C11.438 4.91479 11.1341 5.40035 10.8482 5.89984C10.4902 6.53028 10.0032 7.05871 9.42661 7.44242C8.85002 7.82614 8.19996 8.05439 7.52895 8.10874C6.95896 8.14854 6.47348 8.20625 6.05813 8.27192C4.37693 8.53659 3.11469 10.0788 2.8234 11.9315V11.9295Z" stroke="white" stroke-width="2.14" stroke-linecap="round" stroke-linejoin="round"/>
</g>
</g>
</svg>
