<svg width="19" height="19" viewBox="0 0 19 19" fill="none" xmlns="http://www.w3.org/2000/svg">
<g id="location-pin-3--navigation-map-maps-pin-gps-location">
<path id="Vector" d="M15.1515 13.447H15.2393C15.4789 13.447 15.714 13.5127 15.9189 13.637C16.1238 13.7613 16.2907 13.9394 16.4014 14.1519L17.9252 17.0737C17.9775 17.1735 18.0032 17.2852 17.9997 17.3978C17.9962 17.5105 17.9637 17.6204 17.9054 17.7168C17.847 17.8133 17.7647 17.893 17.6665 17.9483C17.5683 18.0037 17.4575 18.0328 17.3448 18.0327H1.65511C1.5429 18.0327 1.43257 18.0039 1.33469 17.949C1.23682 17.8941 1.15468 17.815 1.09615 17.7193C1.03763 17.6236 1.00468 17.5144 1.00046 17.4022C0.996246 17.2901 1.0209 17.1788 1.07207 17.0789L2.56571 14.1598C2.67586 13.9448 2.84332 13.7644 3.04957 13.6386C3.25582 13.5128 3.49283 13.4465 3.73441 13.447H3.81957" stroke="white" stroke-width="1.5" stroke-linecap="round" stroke-linejoin="round"/>
<path id="Vector 2050" d="M9.5805 1H9.42721C7.88256 1.00005 6.39529 1.58532 5.26485 2.63797C4.13441 3.69061 3.44476 5.13245 3.33476 6.67318C3.22209 8.23101 3.57453 9.81111 4.5205 11.0532C5.7023 12.6058 6.90376 13.6801 8.80093 14.9523C9.00895 15.0915 9.25359 15.1658 9.50385 15.1658C9.75412 15.1658 9.99875 15.0915 10.2068 14.9523C12.1053 13.6815 13.3054 12.6071 14.4885 11.0532C15.4345 9.81111 15.7856 8.23101 15.6743 6.67318C15.5643 5.13245 14.8746 3.69061 13.7442 2.63797C12.6137 1.58532 11.1265 1.00005 9.58181 1H9.5805Z" stroke="white" stroke-width="1.5" stroke-linecap="round" stroke-linejoin="round"/>
<path id="Vector_2" d="M9.50455 8.86127C10.7623 8.86127 11.4699 8.15376 11.4699 6.89597C11.4699 5.63817 10.7623 4.93066 9.50455 4.93066C8.24675 4.93066 7.53925 5.63817 7.53925 6.89597C7.53925 8.15376 8.24675 8.86127 9.50455 8.86127Z" stroke="white" stroke-width="1.5" stroke-linecap="round" stroke-linejoin="round"/>
</g>
</svg>
