<svg width="17" height="17" viewBox="0 0 17 17" fill="none" xmlns="http://www.w3.org/2000/svg">
<g id="nimbus:heart">
<path id="Vector" d="M15.2681 2.71998C14.8397 2.33123 14.3351 2.03599 13.7863 1.85305C13.2375 1.67012 12.6566 1.60352 12.0806 1.65748C11.4018 1.6883 10.7396 1.87751 10.1469 2.20998C9.56455 2.50123 9.01284 2.85005 8.50001 3.25123C8.00759 2.84713 7.47744 2.49132 6.91689 2.18873C6.34405 1.85488 5.69865 1.66527 5.03626 1.63623C4.43745 1.584 3.83432 1.65717 3.26537 1.85109C2.69642 2.04501 2.17415 2.35541 1.73189 2.76248C1.30461 3.15875 0.963382 3.63866 0.729421 4.17238C0.495461 4.7061 0.373762 5.28224 0.371887 5.86498C0.399041 6.77131 0.728115 7.64261 1.30689 8.34061C3.04371 10.7799 5.07818 12.9928 7.36314 14.9281L7.77751 14.4075L7.37376 14.9281C7.6852 15.2044 8.08387 15.3623 8.50001 15.3744C8.92279 15.3637 9.32861 15.2059 9.64751 14.9281C12.0753 12.814 14.2374 10.4129 16.0863 7.77748C16.4113 7.21539 16.5834 6.57801 16.5856 5.92873C16.604 5.33131 16.4962 4.73674 16.2691 4.18383C16.0421 3.63092 15.701 3.13211 15.2681 2.71998ZM14.9919 7.03373C13.2101 9.55553 11.1382 11.8592 8.81876 13.8975C8.7345 13.9705 8.63141 14.0183 8.52126 14.0356C8.40518 14.0206 8.29709 13.9684 8.21314 13.8869C6.0156 12.0321 4.0563 9.91217 2.38001 7.57561C1.97429 7.09396 1.73569 6.49373 1.70001 5.86498C1.70239 5.46569 1.78659 5.07112 1.9474 4.70563C2.10821 4.34015 2.34223 4.0115 2.63501 3.73998C2.94226 3.45828 3.30547 3.24454 3.70093 3.11272C4.09638 2.9809 4.51519 2.93397 4.93001 2.97498H5.03626C5.48326 3.01004 5.91605 3.14824 6.30064 3.37873C6.7859 3.63364 7.25119 3.92489 7.69251 4.24998L8.50001 4.91936L9.30751 4.24998C9.75417 3.90393 10.2306 3.59816 10.7313 3.33623C11.1399 3.09746 11.5979 2.9557 12.07 2.92186H12.1763C12.573 2.88156 12.9738 2.92505 13.3527 3.04951C13.7316 3.17397 14.0801 3.37663 14.3756 3.64436C14.665 3.91795 14.8961 4.24724 15.0549 4.61242C15.2138 4.9776 15.2971 5.37113 15.3 5.76936C15.3202 6.2116 15.2133 6.65038 14.9919 7.03373Z" fill="white"/>
</g>
</svg>
