<svg width="16" height="16" viewBox="0 0 16 16" fill="none" xmlns="http://www.w3.org/2000/svg">
<g id="ph:star-fill">
<path id="Vector" d="M14.6563 7.14887L11.8375 9.60887L12.6819 13.2714C12.7266 13.4628 12.7138 13.6632 12.6452 13.8475C12.5767 14.0317 12.4553 14.1917 12.2963 14.3073C12.1373 14.423 11.9477 14.4892 11.7513 14.4977C11.5549 14.5062 11.3603 14.4566 11.1919 14.3551L7.99753 12.4176L4.81003 14.3551C4.64163 14.4566 4.44706 14.5062 4.25063 14.4977C4.05421 14.4892 3.86465 14.423 3.70565 14.3073C3.54665 14.1917 3.42527 14.0317 3.35668 13.8475C3.28809 13.6632 3.27534 13.4628 3.32003 13.2714L4.16315 9.61262L1.34378 7.14887C1.19466 7.02026 1.08683 6.85048 1.03381 6.66084C0.980795 6.47119 0.984951 6.27011 1.04576 6.08281C1.10657 5.89552 1.22132 5.73034 1.37563 5.608C1.52993 5.48567 1.71692 5.41161 1.91315 5.39512L5.6294 5.07324L7.08003 1.61324C7.15578 1.43169 7.28356 1.27661 7.44727 1.16753C7.61098 1.05845 7.8033 1.00024 8.00003 1.00024C8.19675 1.00024 8.38908 1.05845 8.55279 1.16753C8.7165 1.27661 8.84427 1.43169 8.92003 1.61324L10.375 5.07324L14.09 5.39512C14.2863 5.41161 14.4732 5.48567 14.6276 5.608C14.7819 5.73034 14.8966 5.89552 14.9574 6.08281C15.0182 6.27011 15.0224 6.47119 14.9694 6.66084C14.9164 6.85048 14.8085 7.02026 14.6594 7.14887H14.6563Z" fill="#FCFF59"/>
</g>
</svg>
