<svg width="32" height="23" viewBox="0 0 32 23" fill="none" xmlns="http://www.w3.org/2000/svg">
<path id="Vector" d="M0.184265 1.58333C0.184265 1.16341 0.35108 0.760681 0.648013 0.463748C0.944945 0.166815 1.34767 0 1.7676 0H30.2676C30.6875 0 31.0903 0.166815 31.3872 0.463748C31.6841 0.760681 31.8509 1.16341 31.8509 1.58333C31.8509 2.00326 31.6841 2.40599 31.3872 2.70292C31.0903 2.99985 30.6875 3.16667 30.2676 3.16667H1.7676C1.34767 3.16667 0.944945 2.99985 0.648013 2.70292C0.35108 2.40599 0.184265 2.00326 0.184265 1.58333ZM0.184265 11.134C0.184265 10.7141 0.35108 10.3113 0.648013 10.0144C0.944945 9.71748 1.34767 9.55067 1.7676 9.55067H30.2676C30.6875 9.55067 31.0903 9.71748 31.3872 10.0144C31.6841 10.3113 31.8509 10.7141 31.8509 11.134C31.8509 11.5539 31.6841 11.9567 31.3872 12.2536C31.0903 12.5505 30.6875 12.7173 30.2676 12.7173H1.7676C1.34767 12.7173 0.944945 12.5505 0.648013 12.2536C0.35108 11.9567 0.184265 11.5539 0.184265 11.134ZM1.7676 19.1029C1.34767 19.1029 0.944945 19.2697 0.648013 19.5667C0.35108 19.8636 0.184265 20.2663 0.184265 20.6863C0.184265 21.1062 0.35108 21.5089 0.648013 21.8058C0.944945 22.1028 1.34767 22.2696 1.7676 22.2696H30.2676C30.6875 22.2696 31.0903 22.1028 31.3872 21.8058C31.6841 21.5089 31.8509 21.1062 31.8509 20.6863C31.8509 20.2663 31.6841 19.8636 31.3872 19.5667C31.0903 19.2697 30.6875 19.1029 30.2676 19.1029H1.7676Z" fill="white"/>
</svg>
