<?xml version="1.0" encoding="iso-8859-1"?>
<!-- Uploaded to: SVG Repo, www.svgrepo.com, Generator: SVG Repo Mixer Tools -->
<svg height="800px" width="800px" version="1.1" id="Layer_1" xmlns="http://www.w3.org/2000/svg" xmlns:xlink="http://www.w3.org/1999/xlink" 
	 viewBox="0 0 392.545 392.545" xml:space="preserve">
<g>
	<path style="fill:#FFFFFF;" d="M300.283,172.307h-8.792c2.844,2.133,5.56,4.396,8.145,6.853
		C299.895,176.896,300.089,174.634,300.283,172.307z"/>
	<path style="fill:#FFFFFF;" d="M202.473,28.145c8.727,13.446,15.903,31.224,21.075,52.234h51.135
		C257.164,55.878,231.887,37.26,202.473,28.145z"/>
	<path style="fill:#FFFFFF;" d="M121.794,80.379h78.998c-9.762-35.943-25.083-58.44-39.499-58.44S131.491,44.501,121.794,80.379z"/>
	<path style="fill:#FFFFFF;" d="M227.943,102.165c2.457,14.998,4.008,31.224,4.461,48.291h67.943
		c-1.293-17.131-5.818-33.487-12.735-48.291C287.612,102.165,227.943,102.165,227.943,102.165z"/>
	<path style="fill:#FFFFFF;" d="M116.881,220.662h40.663c4.719-19.653,16.226-36.655,31.806-48.291h-77.382
		C112.485,189.632,114.295,205.923,116.881,220.662z"/>
	<path style="fill:#FFFFFF;" d="M205.705,102.165h-88.824c-2.651,14.739-4.396,30.966-4.913,48.291h98.586
		C210.101,133.131,208.291,116.905,205.705,102.165z"/>
	<path style="fill:#FFFFFF;" d="M174.545,294.747c-11.766-14.287-18.877-32.453-19.329-52.299h-33.487
		c9.762,35.943,25.083,58.44,39.499,58.44C166.206,300.888,170.796,298.109,174.545,294.747z"/>
	<path style="fill:#FFFFFF;" d="M99.038,80.379c5.172-21.01,12.412-38.788,21.075-52.234C90.699,37.26,65.422,55.878,47.774,80.379
		H99.038z"/>
	<path style="fill:#FFFFFF;" d="M120.178,294.747c-8.727-13.446-15.903-31.224-21.075-52.234H47.838
		C65.422,267.014,90.699,285.632,120.178,294.747z"/>
	<path style="fill:#FFFFFF;" d="M22.238,150.521h67.943c0.453-17.067,2.004-33.293,4.461-48.291H34.974
		C28.057,117.098,23.531,133.389,22.238,150.521z"/>
	<path style="fill:#FFFFFF;" d="M94.642,220.662c-2.457-14.998-4.008-31.224-4.461-48.291H22.238
		c1.293,17.131,5.818,33.487,12.735,48.291H94.642z"/>
	<circle style="fill:#FFFFFF;" cx="240.485" cy="240.573" r="63.612"/>
</g>
<g>
	<path style="fill:#FFC10D;" d="M366.028,343.814l-55.079-55.079c-6.012,8.792-13.576,16.356-22.432,22.432l55.079,55.079
		c5.947,5.947,16.356,5.947,22.432,0C375.143,357.066,369.067,346.787,366.028,343.814z"/>
	<path style="fill:#FFC10D;" d="M240.42,198.941c-11.119,0-21.527,4.331-29.414,12.218c-16.226,16.226-16.226,42.731,0,58.958
		c7.887,7.887,18.36,12.218,29.543,12.218c11.119,0,21.657-4.331,29.414-12.218c16.226-16.226,16.226-42.731,0-58.958
		C262.012,203.272,251.539,198.941,240.42,198.941z"/>
</g>
<path style="fill:#194F82;" d="M381.414,328.363l-60.251-60.315c2.909-8.663,4.655-17.842,4.655-27.539
	c0-13.446-3.168-26.117-8.727-37.43c3.62-13.576,5.495-27.604,5.495-41.697c0-88.954-72.339-161.293-161.293-161.293
	S0,72.492,0,161.446s72.339,161.293,161.293,161.293c14.158,0,28.186-1.875,41.826-5.495c11.313,5.495,23.984,8.727,37.43,8.727
	c9.632,0,18.877-1.681,27.539-4.655l60.251,60.251c12.8,13.899,37.689,15.127,53.269,0
	C394.602,368.703,397.77,344.654,381.414,328.363z M366.028,366.117c-5.947,5.947-16.356,5.947-22.432,0l-55.079-55.079
	c8.792-6.012,16.356-13.576,22.432-22.432l55.079,55.079C369.002,346.723,375.079,357.066,366.028,366.117z M189.479,172.307
	c-15.709,11.766-27.152,28.638-31.806,48.291H117.01c-2.651-14.739-4.396-30.966-4.913-48.291L189.479,172.307L189.479,172.307z
	 M111.968,150.521c0.517-17.325,2.263-33.616,4.913-48.291h88.76c2.65,14.739,4.396,30.966,4.913,48.291H111.968z M232.404,150.521
	c-0.453-17.067-2.004-33.293-4.461-48.291h59.604c7.046,14.804,11.442,31.16,12.735,48.291H232.404z M300.283,172.307
	c-0.129,2.327-0.388,4.59-0.711,6.853c-2.521-2.457-5.236-4.719-8.145-6.853H300.283z M223.547,80.379
	c-5.172-21.01-12.347-38.788-21.075-52.234c29.414,9.115,54.691,27.733,72.275,52.234H223.547z M200.727,80.379h-78.933
	c9.762-35.943,25.083-58.44,39.499-58.44S191.03,44.501,200.727,80.379z M120.178,28.145c-8.727,13.446-15.903,31.224-21.075,52.234
	H47.838C65.422,55.878,90.699,37.26,120.178,28.145z M94.578,102.165c-2.457,14.998-4.008,31.224-4.461,48.291H22.238
	c1.293-17.131,5.818-33.487,12.735-48.291C34.974,102.165,94.578,102.165,94.578,102.165z M90.182,172.307
	c0.453,17.067,2.004,33.293,4.461,48.291H34.974c-7.046-14.869-11.442-31.16-12.735-48.291L90.182,172.307L90.182,172.307z
	 M99.038,242.448c5.172,21.01,12.347,38.788,21.075,52.234c-29.414-9.115-54.691-27.733-72.339-52.234L99.038,242.448
	L99.038,242.448z M121.794,242.448h33.487c0.453,19.846,7.564,38.012,19.329,52.299c-3.814,3.426-8.339,6.206-13.188,6.206
	C146.877,300.888,131.491,278.327,121.794,242.448z M176.873,240.573c0-35.103,28.444-63.612,63.612-63.612
	c35.103,0,63.612,28.444,63.612,63.612c0,35.103-28.444,63.612-63.612,63.612S176.873,275.741,176.873,240.573z"/>
<g>
	<path style="fill:#56ACE0;" d="M116.881,220.662h40.663c4.719-19.653,16.226-36.655,31.806-48.291h-77.382
		C112.485,189.632,114.295,205.923,116.881,220.662z"/>
	<path style="fill:#56ACE0;" d="M105.826,57.688c-11.119,5.947-21.075,13.705-29.737,22.691h22.885
		C101.042,72.298,103.305,64.67,105.826,57.688z"/>
	<path style="fill:#56ACE0;" d="M116.881,102.165c-2.651,14.739-4.396,30.966-4.913,48.291h98.586
		c-0.453-17.325-2.263-33.552-4.848-48.291C205.705,102.165,116.881,102.165,116.881,102.165z"/>
	<path style="fill:#56ACE0;" d="M121.794,242.513L121.794,242.513v-0.065V242.513z"/>
	<path style="fill:#56ACE0;" d="M121.794,242.513c3.556,12.994,7.887,24.307,12.606,33.358c8.663,2.004,17.648,3.232,26.893,3.232
		c1.034,0,2.004-0.065,3.103-0.065c-5.56-11.055-8.792-23.402-9.115-36.525H121.794z"/>
	<path style="fill:#56ACE0;" d="M216.695,57.688c2.521,7.046,4.848,14.675,6.853,22.691h22.885
		C237.77,71.329,227.814,63.636,216.695,57.688z"/>
	<path style="fill:#56ACE0;" d="M76.154,242.448c8.663,9.051,18.618,16.873,29.737,22.82c-2.521-7.111-4.848-14.675-6.853-22.82
		H76.154z"/>
	<path style="fill:#56ACE0;" d="M188.121,46.892c-8.663-2.004-17.648-3.232-26.893-3.232c-9.244,0-18.23,1.164-26.893,3.232
		c-4.719,9.115-9.051,20.299-12.606,33.487h78.998C197.172,67.321,192.84,56.072,188.121,46.892z"/>
	<path style="fill:#56ACE0;" d="M90.182,172.307H44.089c1.616,17.519,7.111,33.875,15.58,48.291h34.844
		C92.186,205.664,90.634,189.438,90.182,172.307z"/>
	<path style="fill:#56ACE0;" d="M94.642,102.23H59.733c-8.469,14.481-13.964,30.836-15.58,48.291h46.028
		C90.634,133.454,92.186,117.228,94.642,102.23z"/>
	<path style="fill:#56ACE0;" d="M262.788,102.23h-34.844c2.457,14.998,4.008,31.16,4.461,48.291h45.964
		C276.816,133.002,271.321,116.711,262.788,102.23z"/>
</g>
</svg>